<svg xmlns="http://www.w3.org/2000/svg" viewBox="0 0 1200 360" role="img" aria-labelledby="title desc">
  <title id="title">ReDist logo option 05 - shield loop</title>
  <desc id="desc">A ReDist logo combining a shield, circular resource movement, and verification check.</desc>
  <defs>
    <linearGradient id="shield" x1="0" y1="0" x2="1" y2="1">
      <stop offset="0" stop-color="#0c2d29"/>
      <stop offset="0.6" stop-color="#0b8062"/>
      <stop offset="1" stop-color="#7fb34e"/>
    </linearGradient>
  </defs>
  <rect width="1200" height="360" rx="34" fill="#f8faf9"/>
  <g transform="translate(86 45)">
    <path d="M132 0l112 42v79c0 77-44 124-112 150C64 245 20 198 20 121V42L132 0Z" fill="url(#shield)"/>
    <path d="M82 113c20-29 55-43 88-34l13-18c5-8 18-6 21 3l18 55c3 9-5 18-14 16l-58-8c-10-1-14-13-8-20l10-13c-20-2-41 8-53 25-10 14-12 31-7 47" fill="none" stroke="#ffffff" stroke-width="17" stroke-linecap="round" stroke-linejoin="round"/>
    <path d="M181 154c-20 29-55 43-88 34l-13 18c-5 8-18 6-21-3l-18-55c-3-9 5-18 14-16l58 8c10 1 14 13 8 20l-10 13c20 2 41-8 53-25 10-14 12-31 7-47" fill="none" stroke="#dff4e8" stroke-width="17" stroke-linecap="round" stroke-linejoin="round"/>
    <path d="M109 133l19 19 38-48" fill="none" stroke="#ffffff" stroke-width="13" stroke-linecap="round" stroke-linejoin="round"/>
  </g>
  <g transform="translate(400 88)">
    <text x="0" y="98" fill="#10231f" font-family="Inter, Arial, Helvetica, sans-serif" font-size="130" font-weight="900" letter-spacing="-5">ReDist</text>
    <text x="5" y="155" fill="#126a59" font-family="Inter, Arial, Helvetica, sans-serif" font-size="27" font-weight="850">Trusted redistribution for verified organizations.</text>
  </g>
</svg>
