<svg xmlns="http://www.w3.org/2000/svg" viewBox="0 0 512 512" role="img" aria-labelledby="title desc">
  <title id="title">ReDist clear merged RD mark</title>
  <desc id="desc">A clear connected RD monogram with a shared center stem and a leaf accent for responsible redistribution.</desc>
  <defs>
    <linearGradient id="bg" x1="56" y1="48" x2="456" y2="464" gradientUnits="userSpaceOnUse">
      <stop offset="0" stop-color="#fbfdfb"/>
      <stop offset="1" stop-color="#eff8ef"/>
    </linearGradient>
    <linearGradient id="leaf" x1="182" y1="130" x2="342" y2="330" gradientUnits="userSpaceOnUse">
      <stop offset="0" stop-color="#b7d96a"/>
      <stop offset="0.58" stop-color="#178a5f"/>
      <stop offset="1" stop-color="#0f4a3f"/>
    </linearGradient>
    <filter id="shadow" x="-20%" y="-20%" width="140%" height="140%">
      <feDropShadow dx="0" dy="18" stdDeviation="18" flood-color="#12362f" flood-opacity="0.14"/>
    </filter>
  </defs>
  <rect x="34" y="34" width="444" height="444" rx="112" fill="url(#bg)" stroke="#d8eadc" stroke-width="10"/>
  <g filter="url(#shadow)">
    <path d="M120 392V118h122c71 0 118 40 118 102 0 42-22 75-59 91l73 81h-82l-65-72h-39v72h-68Zm68-128h49c35 0 55-16 55-43 0-28-20-44-55-44h-49v87Z" fill="#10231f"/>
    <path d="M238 118h36c87 0 146 56 146 137 0 82-59 137-146 137h-36V118Zm68 65v144c31-8 49-34 49-72 0-37-18-64-49-72Z" fill="#10231f"/>
    <rect x="224" y="118" width="70" height="274" rx="18" fill="#10231f"/>
    <path d="M245 316c54-31 84-76 92-132-53 8-98 36-123 80-16 29-18 60-10 86 14-3 28-9 41-34Z" fill="url(#leaf)"/>
    <path d="M233 342c16-57 45-101 96-147" fill="none" stroke="#f8fff9" stroke-width="13" stroke-linecap="round"/>
  </g>
</svg>
