<svg xmlns="http://www.w3.org/2000/svg" viewBox="0 0 512 512" role="img" aria-labelledby="title desc">
  <title id="title">ReDist merged DR mark</title>
  <desc id="desc">A compact merged DR monogram where the D holds a hidden R shape, representing one connected redistribution platform.</desc>
  <defs>
    <linearGradient id="bg" x1="56" y1="48" x2="456" y2="464" gradientUnits="userSpaceOnUse">
      <stop offset="0" stop-color="#fbfdfb"/>
      <stop offset="1" stop-color="#eff8ef"/>
    </linearGradient>
    <linearGradient id="leaf" x1="178" y1="126" x2="344" y2="338" gradientUnits="userSpaceOnUse">
      <stop offset="0" stop-color="#b7d96a"/>
      <stop offset="0.58" stop-color="#178a5f"/>
      <stop offset="1" stop-color="#0f4a3f"/>
    </linearGradient>
    <filter id="shadow" x="-20%" y="-20%" width="140%" height="140%">
      <feDropShadow dx="0" dy="18" stdDeviation="18" flood-color="#12362f" flood-opacity="0.14"/>
    </filter>
  </defs>
  <rect x="34" y="34" width="444" height="444" rx="112" fill="url(#bg)" stroke="#d8eadc" stroke-width="10"/>
  <g filter="url(#shadow)">
    <path fill="#10231f" fill-rule="evenodd" d="M126 116h143c89 0 151 58 151 140s-62 140-151 140H126V116Zm80 66v148h62c49 0 78-29 78-74s-29-74-78-74h-62Z"/>
    <path fill="#fbfdfb" d="M206 183h77c32 0 55 18 55 46 0 27-22 46-55 46h-77v-92Zm0 92h46l77 121h-77l-46-72v72h-66V183h66v92Z"/>
    <path fill="#10231f" d="M206 183h57c31 0 52 18 52 44 0 27-21 44-52 44h-57v-88Zm0 142 45 71h-69l-42-67v-58h66v54Z"/>
    <path d="M248 319c56-32 87-79 96-138-56 8-103 38-129 84-17 30-18 62-10 89 15-3 29-10 43-35Z" fill="url(#leaf)"/>
    <path d="M236 345c16-60 47-105 101-153" fill="none" stroke="#f8fff9" stroke-width="14" stroke-linecap="round"/>
  </g>
</svg>
